<?xml version="1.0" encoding="UTF-8"?>
<!-- Generated by SVGo -->
<svg width="192.846mm" height="152.535mm" viewBox="0.000 0.000 192.846 152.535" xmlns="http://www.w3.org/2000/svg" xmlns:xlink="http://www.w3.org/1999/xlink">
<polygon points="187.845,147.535 5.001,147.535 5.001,5.001 187.845,5.001" style="fill:none;stroke-width:0.050000mm;stroke:black"/>
<polygon points="146.220,137.084 158.345,144.084 165.345,131.960 153.220,124.960" style="fill:none;stroke-width:0.050000mm;stroke:black"/>
<polygon points="146.033,102.249 145.236,101.789 143.586,104.647 144.383,105.107 143.521,106.600 146.318,108.215 145.555,109.536 141.485,107.186 134.485,119.310 138.556,121.660 137.793,122.981 134.996,121.366 134.133,122.860 133.336,122.400 131.686,125.258 132.483,125.718 131.621,127.212 134.418,128.827 134.005,129.539 136.430,130.941 136.843,130.227 142.273,133.362 143.135,131.868 143.984,132.358 145.634,129.500 144.785,129.009 145.648,127.516 141.777,125.281 142.539,123.960 146.609,126.310 153.609,114.186 149.539,111.836 150.302,110.515 154.173,112.750 155.035,111.257 155.884,111.747 157.534,108.889 156.685,108.399 157.548,106.905 152.118,103.770 152.530,103.055 150.105,101.655 149.693,102.370 146.896,100.755" style="fill:none;stroke-width:0.050000mm;stroke:black"/>
<polygon points="155.745,120.587 167.870,127.587 174.870,115.462 162.745,108.462" style="fill:none;stroke-width:0.050000mm;stroke:black"/>
<polygon points="129.533,92.724 128.739,92.264 127.089,95.122 127.885,95.582 127.023,97.075 129.819,98.690 129.057,100.011 124.987,97.661 117.987,109.785 122.058,112.135 121.295,113.456 118.498,111.841 117.635,113.335 116.839,112.875 115.189,115.733 115.985,116.193 115.123,117.687 117.920,119.302 117.508,120.016 119.932,121.416 120.345,120.702 125.775,123.837 126.637,122.343 127.486,122.833 129.134,119.975 128.287,119.485 129.150,117.991 125.279,115.756 126.042,114.435 130.111,116.785 137.112,104.661 133.041,102.311 133.804,100.990 137.675,103.225 138.537,101.732 139.386,102.222 141.036,99.364 140.187,98.874 141.050,97.380 135.620,94.245 136.032,93.530 133.608,92.130 133.195,92.845 130.396,91.230" style="fill:none;stroke-width:0.050000mm;stroke:black"/>
<polygon points="165.270,104.089 177.395,111.089 184.395,98.964 172.270,91.964" style="fill:none;stroke-width:0.050000mm;stroke:black"/>
<polygon points="36.101,90.869 36.101,104.869 50.101,104.869 50.101,90.869" style="fill:none;stroke-width:0.050000mm;stroke:black"/>
<polygon points="17.051,90.869 17.051,104.869 31.051,104.869 31.051,90.869" style="fill:none;stroke-width:0.050000mm;stroke:black"/>
<polygon points="148.772,94.564 160.897,101.564 167.897,89.439 155.772,82.439" style="fill:none;stroke-width:0.050000mm;stroke:black"/>
<polygon points="93.251,86.107 93.251,100.107 107.251,100.107 107.251,86.107" style="fill:none;stroke-width:0.050000mm;stroke:black"/>
<polygon points="55.151,86.107 55.151,100.107 69.151,100.107 69.151,86.107" style="fill:none;stroke-width:0.050000mm;stroke:black"/>
<polygon points="74.201,83.726 74.201,97.726 88.201,97.726 88.201,83.726" style="fill:none;stroke-width:0.050000mm;stroke:black"/>
<polygon points="36.101,71.819 36.101,85.819 50.101,85.819 50.101,71.819" style="fill:none;stroke-width:0.050000mm;stroke:black"/>
<polygon points="12.288,71.819 12.288,85.819 26.288,85.819 26.288,71.819" style="fill:none;stroke-width:0.050000mm;stroke:black"/>
<polygon points="112.301,69.438 112.301,83.438 126.301,83.438 126.301,69.438" style="fill:none;stroke-width:0.050000mm;stroke:black"/>
<polygon points="93.251,67.057 93.251,81.057 107.251,81.057 107.251,67.057" style="fill:none;stroke-width:0.050000mm;stroke:black"/>
<polygon points="55.151,67.057 55.151,81.057 69.151,81.057 69.151,67.057" style="fill:none;stroke-width:0.050000mm;stroke:black"/>
<polygon points="74.201,64.676 74.201,78.676 88.201,78.676 88.201,64.676" style="fill:none;stroke-width:0.050000mm;stroke:black"/>
<polygon points="131.351,64.676 131.351,78.676 145.351,78.676 145.351,64.676" style="fill:none;stroke-width:0.050000mm;stroke:black"/>
<polygon points="36.101,52.769 36.101,66.769 50.101,66.769 50.101,52.769" style="fill:none;stroke-width:0.050000mm;stroke:black"/>
<polygon points="12.288,52.769 12.288,66.769 26.288,66.769 26.288,52.769" style="fill:none;stroke-width:0.050000mm;stroke:black"/>
<polygon points="112.301,50.388 112.301,64.388 126.301,64.388 126.301,50.388" style="fill:none;stroke-width:0.050000mm;stroke:black"/>
<polygon points="93.251,48.007 93.251,62.007 107.251,62.007 107.251,48.007" style="fill:none;stroke-width:0.050000mm;stroke:black"/>
<polygon points="55.151,48.007 55.151,62.007 69.151,62.007 69.151,48.007" style="fill:none;stroke-width:0.050000mm;stroke:black"/>
<polygon points="74.201,45.626 74.201,59.626 88.201,59.626 88.201,45.626" style="fill:none;stroke-width:0.050000mm;stroke:black"/>
<polygon points="131.351,36.101 131.351,50.101 145.351,50.101 145.351,36.101" style="fill:none;stroke-width:0.050000mm;stroke:black"/>
<polygon points="36.101,33.719 36.101,47.719 50.101,47.719 50.101,33.719" style="fill:none;stroke-width:0.050000mm;stroke:black"/>
<polygon points="12.288,33.719 12.288,47.719 26.288,47.719 26.288,33.719" style="fill:none;stroke-width:0.050000mm;stroke:black"/>
<polygon points="112.301,31.338 112.301,45.338 126.301,45.338 126.301,31.338" style="fill:none;stroke-width:0.050000mm;stroke:black"/>
<polygon points="93.251,28.957 93.251,42.957 107.251,42.957 107.251,28.957" style="fill:none;stroke-width:0.050000mm;stroke:black"/>
<polygon points="55.151,28.957 55.151,42.957 69.151,42.957 69.151,28.957" style="fill:none;stroke-width:0.050000mm;stroke:black"/>
<polygon points="74.201,26.576 74.201,40.576 88.201,40.576 88.201,26.576" style="fill:none;stroke-width:0.050000mm;stroke:black"/>
<polygon points="36.101,14.669 36.101,28.669 50.101,28.669 50.101,14.669" style="fill:none;stroke-width:0.050000mm;stroke:black"/>
<polygon points="12.288,14.669 12.288,28.669 26.288,28.669 26.288,14.669" style="fill:none;stroke-width:0.050000mm;stroke:black"/>
<polygon points="131.351,12.288 131.351,26.288 145.351,26.288 145.351,12.288" style="fill:none;stroke-width:0.050000mm;stroke:black"/>
<polygon points="112.301,12.288 112.301,26.288 126.301,26.288 126.301,12.288" style="fill:none;stroke-width:0.050000mm;stroke:black"/>
<polygon points="93.251,9.907 93.251,23.907 107.251,23.907 107.251,9.907" style="fill:none;stroke-width:0.050000mm;stroke:black"/>
<polygon points="55.151,9.907 55.151,23.907 69.151,23.907 69.151,9.907" style="fill:none;stroke-width:0.050000mm;stroke:black"/>
<polygon points="74.201,7.526 74.201,21.526 88.201,21.526 88.201,7.526" style="fill:none;stroke-width:0.050000mm;stroke:black"/>
</svg>